<?xml version="1.0" encoding="utf-8"?>
<!-- Generator: Adobe Illustrator 22.0.0, SVG Export Plug-In . SVG Version: 6.00 Build 0)  -->
<svg version="1.1" id="Layer_1" xmlns="http://www.w3.org/2000/svg" xmlns:xlink="http://www.w3.org/1999/xlink" x="0px" y="0px"
	 viewBox="0 0 1200 1200" enable-background="new 0 0 1200 1200" xml:space="preserve">
<g>
	<path fill="#898989" d="M334.979,605.001c0-40.082-15.806-74.253-35.2-77.779v155.559
		C319.174,679.255,334.979,645.083,334.979,605.001z"/>
	<path fill="#898989" d="M135.712,271.701H99.579v38.095C118.956,307.232,134.164,291.376,135.712,271.701z"/>
	<rect x="99.579" y="496.101" fill="#898989" width="59.4" height="213.4"/>
	<path fill="#898989" d="M293.18,366.301h-193.6v123.2h66v226.6h-66v129.8h193.6V366.301z M220.029,624.114
		c-10.502,0-19.044-8.543-19.044-19.044s8.542-19.044,19.044-19.044c10.502,0,19.044,8.543,19.044,19.044
		S230.531,624.114,220.029,624.114z"/>
	<path fill="#898989" d="M491.18,605.001c0,59.309,47.668,107.664,106.7,108.844v-90.106c-8.931-1.57-15.744-9.365-15.744-18.738
		s6.813-17.168,15.744-18.738v-90.106C538.848,497.337,491.18,545.691,491.18,605.001z"/>
	<circle fill="#898989" cx="220.029" cy="605.07" r="12.444"/>
	<circle fill="#898989" cx="601.18" cy="605.001" r="12.444"/>
	<rect x="68.779" y="564.301" fill="#898989" width="24.2" height="81.4"/>
	<rect x="1038.979" y="496.101" fill="#898989" width="63.8" height="213.4"/>
	<rect x="1109.38" y="564.301" fill="#898989" width="19.8" height="81.4"/>
	<path fill="#898989" d="M620.223,605.001c0,9.373-6.813,17.168-15.744,18.738v90.051c58.012-2.32,104.5-50.217,104.5-108.788
		c0-58.572-46.488-106.469-104.5-108.788v90.051C613.41,587.833,620.223,595.628,620.223,605.001z"/>
	<path fill="#898989" d="M1102.78,310.145v-38.444h-40.533C1063.911,292.844,1081.349,309.584,1102.78,310.145z"/>
	<path fill="#898989" d="M862.979,605.001c0,40.082,15.806,74.253,35.2,77.779V527.222
		C878.785,530.748,862.979,564.919,862.979,605.001z"/>
	<path fill="#898989" d="M99.579,901.306v36.995h36.064C133.628,919.133,118.596,903.823,99.579,901.306z"/>
	<path fill="#898989" d="M1062.316,938.301h40.464v-37.344C1081.719,901.509,1064.484,917.675,1062.316,938.301z"/>
	<path fill="#898989" d="M898.18,689.462c-23.689-3.079-41.8-39.055-41.8-84.461s18.111-81.381,41.8-84.461V359.701h204.6v-42.928
		c-25.076-0.564-45.496-20.282-47.175-45.072H604.479v217.912c61.652,2.324,111.1,53.177,111.1,115.388
		c0,62.211-49.448,113.064-111.1,115.388v217.912h451.209c2.199-24.272,22.387-43.416,47.091-43.972v-41.828h-204.6V689.462z"/>
	<path fill="#898989" d="M50,237.237v725.526h1100V237.237H50z M1135.78,652.301h-26.4v292.6H92.979v-292.6h-30.8v-94.6h30.8v-292.6
		h1016.4v292.6h26.4V652.301z"/>
	<path fill="#898989" d="M484.579,605.001c0-62.949,50.629-114.263,113.3-115.444V271.701H142.354
		c-1.58,23.324-19.747,42.161-42.775,44.779v43.221h200.2V520.54c23.689,3.079,41.8,39.055,41.8,84.461s-18.111,81.381-41.8,84.461
		v163.039h-200.2v42.121c22.665,2.577,40.624,20.864,42.691,43.679H597.88V720.445C535.208,719.264,484.579,667.949,484.579,605.001
		z"/>
	<polygon fill="#898989" points="1032.38,489.501 1102.78,489.501 1102.78,366.301 904.779,366.301 904.779,845.901 
		1102.78,845.901 1102.78,716.101 1032.38,716.101 	"/>
</g>
</svg>
